<svg viewBox="30.5187 87.8043 361.464 126.4901" xmlns="http://www.w3.org/2000/svg">
  <path d="M 154.76 100 L 134.244 100 C 133.016 100 131.639 101.002 131.157 102.231 L 107.794 161.757 L 93.258 101.031 C 93.105 100.387 92.552 99.998 91.796 100 L 71.27 100 C 70.052 100 68.665 101.002 68.183 102.231 L 30.685 197.766 C 30.204 198.997 30.802 200 32.021 200 L 52.547 200 C 53.765 200 55.162 198.997 55.644 197.766 L 79.011 138.233 L 93.538 198.959 C 93.689 199.603 94.249 199.991 95.009 199.991 L 115.525 199.991 C 116.743 199.991 118.13 198.988 118.612 197.759 L 156.107 102.231 C 156.579 100.999 155.981 100.003 154.76 100 Z" fill="#000000"/>
  <path d="M 201.509 148.379 C 209.537 143.277 215.985 136.406 219.026 128.81 C 225.332 113.064 214.67 100.206 195.263 100.139 L 155.428 100 C 154.123 99.996 152.693 100.94 152.224 102.113 L 113.94 197.715 C 113.47 198.889 114.143 199.839 115.447 199.843 L 160.278 200 C 179.696 200.067 200.616 187.31 206.922 171.564 C 210.731 162.047 208.301 153.598 201.509 148.379 Z M 177.898 139.428 L 163.181 139.377 C 162.96 139.376 162.856 139.246 162.843 139.067 C 162.835 139.007 162.805 138.952 162.831 138.884 L 170.528 119.663 C 170.555 119.596 170.631 119.54 170.683 119.483 C 170.838 119.313 171.051 119.173 171.273 119.174 L 185.989 119.225 C 191.889 119.244 194.884 123.787 192.653 129.356 C 190.42 134.933 183.798 139.449 177.898 139.428 Z M 161.924 181.555 L 146.399 181.501 C 146.358 181.501 146.342 181.461 146.302 181.451 C 146.093 181.395 145.969 181.234 146.058 181.007 L 155.024 158.618 C 155.114 158.392 155.368 158.232 155.622 158.177 C 155.679 158.167 155.716 158.128 155.758 158.128 L 171.273 158.182 C 171.566 158.182 171.854 158.204 172.127 158.233 C 178.091 158.698 180.934 163.755 178.471 169.909 C 176.012 176.045 169.157 181.067 162.837 181.509 C 162.546 181.527 162.229 181.555 161.924 181.555 Z" fill="#3550af"/>
  <text style="fill: #000000; white-space: pre; font-family: Arial, sans-serif; font-size: 56.5px;" x="229.342" y="141.361" transform="matrix(0.9720369577407837, 0, 0.0029130002949386835, 1.1406960487365723, 8.962343215942383, -15.31813907623291)">NINJA</text>
  <text style="fill: rgb(53, 80, 175); font-family: Arial, sans-serif; font-size: 60.9px; stroke: rgb(54, 39, 228); stroke-width: 0px; white-space: pre;" x="220.84" y="200.001" transform="matrix(1, 0, 0.0028540000785142183, 1.1174440383911133, 11.026178359985352, -23.949748992919925)">BYTE</text>
</svg>